<svg xmlns="http://www.w3.org/2000/svg" viewBox="0 0 160 190" width="160" height="190" role="img" aria-label="kubernetes-debugging robot">
  <title>kubernetes-debugging</title>
  <defs>
    <linearGradient id="bg" x1="0" y1="0" x2="0" y2="1">
      <stop offset="0%" stop-color="#433350" stop-opacity="0.35"/>
      <stop offset="100%" stop-color="#291c35" stop-opacity="0.05"/>
    </linearGradient>
    <filter id="glow" x="-50%" y="-50%" width="200%" height="200%">
      <feGaussianBlur stdDeviation="3" result="b"/><feMerge><feMergeNode in="b"/><feMergeNode in="SourceGraphic"/></feMerge>
    </filter>
  </defs>
  <rect x="0" y="0" width="160" height="190" rx="18" fill="url(#bg)"/>
  <g filter="url(#glow)"><path d="M52 36 V20" stroke="#9946e1" stroke-width="3.5" stroke-linecap="round"/><circle cx="52" cy="17" r="4.5" fill="#ea47cf"><animate attributeName="opacity" values="1;.3;1" dur="1.4s" repeatCount="indefinite"/></circle><path d="M108 36 V20" stroke="#9946e1" stroke-width="3.5" stroke-linecap="round"/><circle cx="108" cy="17" r="4.5" fill="#ea47cf"><animate attributeName="opacity" values=".3;1;.3" dur="1.4s" repeatCount="indefinite"/></circle></g>
  <path d="M46 40 h68 a10 10 0 0 1 10 10 v40 a14 14 0 0 1 -14 14 h-60 a14 14 0 0 1 -14 -14 v-40 a10 10 0 0 1 10 -10 z" fill="#433350" stroke="#9946e1" stroke-width="3"/>
  <g filter="url(#glow)"><path d="M52 68 h22" stroke="#ea47cf" stroke-width="6" stroke-linecap="round"><animate attributeName="opacity" values="1;.35;1" dur="2.4s" repeatCount="indefinite"/></path><path d="M86 68 h22" stroke="#ea47cf" stroke-width="6" stroke-linecap="round"><animate attributeName="opacity" values="1;.35;1" dur="2.4s" repeatCount="indefinite"/></path></g>
  <path d="M68 92 h24" stroke="#9946e1" stroke-width="3" stroke-linecap="round" opacity="0.7"/>
  <rect x="74" y="104" width="12" height="8" fill="#9946e1" opacity="0.8"/>
  <rect x="48" y="112" width="64" height="48" rx="12" fill="#433350" stroke="#9946e1" stroke-width="3"/>
  <g filter="url(#glow)"><path d="M80 118 l16 9 v18 l-16 9 -16 -9 v-18z" fill="none" stroke="#ea47cf" stroke-width="3"/><circle cx="80" cy="136" r="4" fill="#ea47cf"/></g>
  <rect x="30" y="118" width="14" height="34" rx="7" fill="#433350" stroke="#9946e1" stroke-width="3"/>
  <rect x="116" y="118" width="14" height="34" rx="7" fill="#433350" stroke="#9946e1" stroke-width="3"/>
  <rect x="58" y="160" width="14" height="18" rx="5" fill="#433350" stroke="#9946e1" stroke-width="3"/>
  <rect x="88" y="160" width="14" height="18" rx="5" fill="#433350" stroke="#9946e1" stroke-width="3"/>
  <circle cx="24" cy="46" r="3" fill="#ea47cf" opacity="0.65"><animate attributeName="opacity" values="0.65;0.15;0.65" dur="3.1s" repeatCount="indefinite"/></circle>
  <circle cx="138" cy="70" r="2.5" fill="#ea47cf" opacity="0.5"><animate attributeName="opacity" values="0.2;0.7;0.2" dur="2.4s" repeatCount="indefinite"/></circle>
  <circle cx="30" cy="168" r="2" fill="#9946e1" opacity="0.5"><animate attributeName="opacity" values="0.6;0.2;0.6" dur="3.8s" repeatCount="indefinite"/></circle>
</svg>
